<svg width="1024" height="991" viewBox="0 0 1024 991" fill="none" xmlns="http://www.w3.org/2000/svg">
<path d="M208.947 103.452C213.816 102.702 217.562 101.578 220.933 101.578C325.054 101.578 429.55 99.7047 533.672 102.702C652.026 105.7 754.65 181.395 792.103 288.941C831.055 400.984 799.22 516.774 706.709 596.965C704.836 598.464 702.963 599.963 699.218 602.961C758.02 697.766 816.448 791.822 876 888.126C867.76 888.876 862.517 889.625 857.273 889.625C775.624 889.625 693.6 889.251 611.951 890C598.467 890 590.602 885.878 583.86 874.262C546.032 811.308 507.08 748.729 468.502 685.775C465.506 680.529 461.761 675.657 454.27 671.535C454.27 743.482 454.27 815.055 454.27 888.126C371.122 888.126 290.971 888.126 211.195 888.126C210.071 886.627 208.573 885.878 208.573 884.754C208.947 821.8 205.951 758.471 210.82 695.892C216.438 627.318 271.121 581.976 340.785 580.852C408.951 579.728 477.117 582.725 544.534 577.104C623.187 570.359 682.738 528.765 710.829 453.82C740.043 378.5 726.559 307.677 671.128 247.346C633.674 206.876 585.358 186.641 531.05 185.142C455.019 182.894 378.613 184.393 302.582 184.767C299.586 184.767 296.589 185.517 292.469 186.266C292.469 266.832 292.469 346.274 292.469 427.964C298.462 428.339 304.455 428.713 310.447 428.713C377.115 428.713 444.157 428.713 510.825 428.713C541.163 428.713 562.137 409.977 562.137 383.746C562.137 357.516 541.163 338.405 511.2 338.03C493.222 337.655 475.244 338.03 453.895 338.03C453.895 348.522 453.895 357.89 453.895 366.884C453.895 375.502 453.895 384.121 453.895 393.489C425.43 393.489 399.587 393.489 372.246 393.489C372.246 348.147 372.246 303.555 372.246 257.089C378.239 256.714 384.231 255.59 390.224 255.59C432.547 255.59 475.244 255.216 517.567 255.59C589.478 256.34 644.535 311.424 644.91 382.622C645.284 454.195 590.976 510.403 519.065 511.153C456.517 511.902 394.344 511.902 331.796 511.153C288.349 510.778 249.023 520.146 216.064 549.75C214.565 551.248 212.318 551.998 208.947 553.497C208.947 402.857 208.947 253.342 208.947 103.452ZM552.774 662.542C581.988 710.507 610.078 755.848 638.168 801.565C639.666 804.188 643.786 807.186 646.783 807.186C672.626 807.56 698.469 807.56 728.057 807.56C692.851 750.977 659.891 697.766 626.932 644.93C613.449 648.677 602.212 652.424 590.602 655.047C579.366 657.67 567.381 659.544 552.774 662.542ZM370.373 666.289C327.676 658.42 296.589 672.659 293.218 705.26C289.848 738.236 292.469 771.962 292.469 805.687C319.062 805.687 344.53 805.687 370.373 805.687C370.373 757.722 370.373 712.006 370.373 666.289Z" fill="black"/>
</svg>
