<svg width="1024" height="991" viewBox="0 0 1024 991" fill="none" xmlns="http://www.w3.org/2000/svg">
<path fill-rule="evenodd" clip-rule="evenodd" d="M221.5 108H507.5L508.5 109L555.5 110L576.5 113C644.867 127.967 698.033 158.133 736 203.5C760.207 230.293 778.54 262.96 791 301.5C801.273 330.56 805.273 365.893 803 407.5C799.507 442.007 791.507 472.007 779 497.5C763.127 530.627 742.627 559.127 717.5 583L697 600.5L699 606.5L870 880.5L861.5 883H600.5C593.667 881.167 588.5 877.667 585 872.5L471 685.5L461.5 673L455.5 669L455 882H216.5L213 878.5V727.5L214 726.5C213.467 710.967 214.133 696.633 216 683.5C221.833 650.667 235.667 625.833 257.5 609C274.627 594.127 296.96 584.46 324.5 580L333.5 579L510.5 578L511.5 577L553.5 575L575.5 571C617.613 560.78 650.447 541.28 674 512.5C704.033 479.2 720.033 431.867 722 370.5C719.713 341.12 712.713 316.453 701 296.5C688.253 273.58 672.42 253.747 653.5 237C632.807 218.027 606.807 204.36 575.5 196C560.233 192.267 543.233 190.267 524.5 190L432.5 189L431.5 190H303.5L296 192V428.5L296.5 429H310.5L311.5 430H511.5C530 429.167 543.5 423.333 552 412.5C558.48 405.313 561.48 394.647 561 380.5C559.18 368.32 554.347 359.153 546.5 353C539.44 346.727 530.107 342.727 518.5 341H455V395H374V261.5L378.5 261L391.5 259H518.5C561.16 262.34 592.66 276.84 613 302.5C632.5 322.667 642.5 352.333 643 391.5C638.987 432.153 624.487 462.32 599.5 482C583.767 495.933 563.433 505.267 538.5 510C488.307 512.14 436.64 512.807 383.5 512L382.5 511H317.5C296.167 512.333 277.5 516.333 261.5 523C243.633 530.8 227.967 540.8 214.5 553L214 110L221.5 108ZM623 643C601 650.333 577.667 656 553 660L636 797L645 802H724L626 645L623 643ZM338 662C327.333 664 318.667 667.667 312 673C306.667 677 302.667 682.333 300 689C296.667 697.667 295 708.667 295 722L296 800H372V663C362.667 661 351.333 660.667 338 662Z" fill="black"/>
</svg>
