<svg xmlns="http://www.w3.org/2000/svg" viewBox="0 0 192 192" fill="none">
  <defs>
    <linearGradient id="bgGradient192" x1="0%" y1="0%" x2="100%" y2="100%">
      <stop offset="0%" style="stop-color:#6366f1;stop-opacity:1" />
      <stop offset="100%" style="stop-color:#8b5cf6;stop-opacity:1" />
    </linearGradient>
  </defs>

  <!-- 背景 -->
  <rect width="192" height="192" rx="40" fill="url(#bgGradient192)"/>

  <!-- 主图标 -->
  <g transform="translate(96, 96)">
    <!-- 左侧：彩色原图概念 -->
    <g opacity="0.35">
      <circle cx="-35" cy="-25" r="22" fill="#60a5fa"/>
      <circle cx="-27" cy="-12" r="18" fill="#34d399"/>
      <circle cx="-42" cy="-8" r="16" fill="#f472b6"/>
    </g>

    <!-- 转换箭头 -->
    <g opacity="0.9">
      <path d="M -18 0 L 8 0 L 8 -7 L 22 0 L 8 7 L 8 0 Z"
            fill="white"/>
      <line x1="-28" y1="0" x2="-18" y2="0"
            stroke="white"
            stroke-width="2"
            stroke-dasharray="3,3"
            opacity="0.6"/>
    </g>

    <!-- 右侧：黑色轮廓 -->
    <g>
      <path d="M 28 -28 Q 42 -33 50 -20 Q 55 -5 47 5 Q 38 15 20 12 Q 10 8 8 -8 Q 12 -22 28 -28 Z"
            fill="#1e293b"/>
      <path d="M 28 -28 Q 42 -33 50 -20 Q 55 -5 47 5 Q 38 15 20 12 Q 10 8 8 -8 Q 12 -22 28 -28 Z"
            fill="none"
            stroke="white"
            stroke-width="1.5"
            opacity="0.25"/>
    </g>
  </g>

  <!-- 底部文字 -->
  <text x="96" y="162"
        font-family="system-ui, -apple-system, sans-serif"
        font-size="26"
        font-weight="700"
        fill="white"
        text-anchor="middle"
        letter-spacing="2">LS</text>
</svg>
