<svg width="192" height="192" viewBox="0 0 32 32" fill="none" xmlns="http://www.w3.org/2000/svg">
<circle cx="19.7333" cy="16" r="8" fill="black"/>
<path fill-rule="evenodd" clip-rule="evenodd" d="M16 26.6667C21.891 26.6667 26.6667 21.891 26.6667 16C26.6667 10.109 21.891 5.33333 16 5.33333C10.109 5.33333 5.33333 10.109 5.33333 16H0C0 7.16344 7.16344 0 16 0C24.8366 0 32 7.16344 32 16C32 24.8366 24.8366 32 16 32C11.5825 32 7.5788 30.2062 4.68629 27.3137L2.80067 25.4281L14.1144 14.1144L17.8856 17.8856L10.581 25.1902C12.1693 26.1292 14.0207 26.6667 16 26.6667Z" fill="#3D39FF"/>
</svg>
